# xmcd
#
# Track frame offsets:
#	150
#	18719
#	42296
#	60257
#	73633
#	94058
#	116865
#	128969
#	148211
#	164414
#
# Disc length: 2499 seconds
#
# Revision: 0
# Processed by: cddbd v1.5.2PL0 Copyright (c) Steve Scherf et al.
# Submitted via: audiograbber 1.83.01
#
DISCID=9209c10a
DTITLE=Tracy chapman - Crossroads
DYEAR=1989
DGENRE=Blues
TTITLE0=Crossroads
TTITLE1=Bridges
TTITLE2=Freedom Now
TTITLE3=Material World
TTITLE4=Be Careful Of My Heart
TTITLE5=Subcity
TTITLE6=Born To Fight
TTITLE7=A Hundred Years
TTITLE8=This Time
TTITLE9=All That You Have Is Your Soul
EXTD=
EXTT0=
EXTT1=
EXTT2=
EXTT3=
EXTT4=
EXTT5=
EXTT6=
EXTT7=
EXTT8=
EXTT9=
PLAYORDER=
